<?xml version="1.0" encoding="UTF-8"?>
<!DOCTYPE svg PUBLIC "-//W3C//DTD SVG 1.1//EN" "http://www.w3.org/Graphics/SVG/1.1/DTD/svg11.dtd">
<svg xmlns="http://www.w3.org/2000/svg" version="1.1" width="186px" height="186px" style="shape-rendering:geometricPrecision; text-rendering:geometricPrecision; image-rendering:optimizeQuality; fill-rule:evenodd; clip-rule:evenodd" xmlns:xlink="http://www.w3.org/1999/xlink">
<g><path style="opacity:1" fill="#393d46" d="M -0.5,-0.5 C 61.5,-0.5 123.5,-0.5 185.5,-0.5C 185.5,61.5 185.5,123.5 185.5,185.5C 123.5,185.5 61.5,185.5 -0.5,185.5C -0.5,123.5 -0.5,61.5 -0.5,-0.5 Z"/></g>
<g><path style="opacity:1" fill="#eaeaea" d="M 87.5,125.5 C 87.5,115.833 87.5,106.167 87.5,96.5C 83.9581,96.1872 80.6248,96.5206 77.5,97.5C 72.0583,106.782 66.3916,115.948 60.5,125C 55.798,125.828 51.1313,125.662 46.5,124.5C 52.5,114.833 58.5,105.167 64.5,95.5C 51.4872,90.3031 46.9872,80.9697 51,67.5C 53.9594,61.2103 58.7928,57.0437 65.5,55C 88.1642,54.5 110.831,54.3334 133.5,54.5C 133.5,58.1667 133.5,61.8333 133.5,65.5C 122.5,65.5 111.5,65.5 100.5,65.5C 100.5,70.8333 100.5,76.1667 100.5,81.5C 111.167,81.5 121.833,81.5 132.5,81.5C 132.5,85.5 132.5,89.5 132.5,93.5C 121.833,93.5 111.167,93.5 100.5,93.5C 100.5,100.167 100.5,106.833 100.5,113.5C 111.833,113.5 123.167,113.5 134.5,113.5C 134.5,117.5 134.5,121.5 134.5,125.5C 118.833,125.5 103.167,125.5 87.5,125.5 Z"/></g>
<g><path style="opacity:1" fill="#3d414a" d="M 69.5,65.5 C 75.5,65.5 81.5,65.5 87.5,65.5C 87.5,72.1667 87.5,78.8333 87.5,85.5C 81.4908,85.6662 75.4908,85.4995 69.5,85C 64.3652,81.9446 62.5319,77.4446 64,71.5C 65.3597,68.9774 67.193,66.9774 69.5,65.5 Z"/></g>
<g><path style="opacity:1" fill="#75787e" d="M 77.5,97.5 C 80.6248,96.5206 83.9581,96.1872 87.5,96.5C 87.5,106.167 87.5,115.833 87.5,125.5C 86.5064,116.348 86.1731,107.015 86.5,97.5C 83.5,97.5 80.5,97.5 77.5,97.5 Z"/></g>
</svg>
